<svg xmlns="http://www.w3.org/2000/svg" width="1200" height="270" viewBox="0 0 1200 270" role="img" aria-labelledby="title desc">
  <title id="title">workestrate / rybskiworks</title>
  <desc id="desc">A workspace for software. One fleet definition supplies individual agent and service microVMs.</desc>
  <defs>
    <linearGradient id="ink" x1="44" y1="0" x2="1156" y2="0" gradientUnits="userSpaceOnUse">
      <stop stop-color="#255bbd"/><stop offset=".45" stop-color="#b3435d"/><stop offset="1" stop-color="#255bbd"/>
    </linearGradient>
  </defs>
  <rect x="1" y="1" width="1198" height="268" rx="18" fill="#faf9f6" stroke="#d1d9e2"/>
  <text x="46" y="39" font-family="ui-monospace, 'DejaVu Sans Mono', monospace" font-size="14" letter-spacing="1.2" fill="#536379">rybskiworks</text>
  <g font-family="Arial, Helvetica, sans-serif">
    <text x="42" y="130" font-size="84" font-weight="700" letter-spacing="-4" fill="url(#ink)">workestrate</text>
    <text x="46" y="177" font-size="29" letter-spacing="-.6" fill="#192334">a workspace for software.</text>
  </g>
  <text x="46" y="224" font-family="ui-monospace, 'DejaVu Sans Mono', monospace" font-size="16" fill="#536379">TOML / Nix / microVMs</text>
  <rect x="674" y="54" width="456" height="50" rx="9" fill="#f1f3f6" stroke="#d1d9e2"/>
  <g font-family="ui-monospace, 'DejaVu Sans Mono', monospace">
    <text x="692" y="85" font-size="18" fill="#192334">workestrate.toml</text>
    <text x="1112" y="84" text-anchor="end" font-size="14" fill="#536379">your fleet</text>
  </g>
  <path d="M902 104V144M902 124H756Q740 124 740 140V144M902 124H1048Q1064 124 1064 140V144" fill="none" stroke="url(#ink)" stroke-width="2"/>
  <circle cx="902" cy="124" r="4" fill="#faf9f6" stroke="url(#ink)" stroke-width="2"/>
  <g fill="#faf9f6" stroke="#d1d9e2">
    <rect x="674" y="144" width="132" height="90" rx="9"/>
    <rect x="836" y="144" width="132" height="90" rx="9"/>
    <rect x="998" y="144" width="132" height="90" rx="9"/>
  </g>
  <g fill="none" stroke="url(#ink)" stroke-width="2" stroke-linecap="round" stroke-linejoin="round">
    <path d="M690 160l5 5-5 5m10 0h10M852 159h18v12h-18zM859 171v4m-5 0h10M1014 160l5 5-5 5m10 0h10"/>
  </g>
  <g font-family="Arial, Helvetica, sans-serif" font-size="23" fill="#192334">
    <text x="690" y="197">agent</text><text x="852" y="197">service</text><text x="1014" y="197">agent</text>
  </g>
  <g font-family="ui-monospace, 'DejaVu Sans Mono', monospace" font-size="13" fill="#536379">
    <text x="690" y="219">microVM</text><text x="852" y="219">microVM</text><text x="1014" y="219">microVM</text>
  </g>
</svg>
